# xmcd
#
# Track frame offsets:
#	150
#	21022
#	39459
#	54418
#	64068
#	77120
#	87167
#	104324
#	116763
#	133920
#
# Disc length: 2141 seconds
#
# Revision: 0
# Processed by: cddbd v1.4PL0 Copyright (c) Steve Scherf et al.
# Submitted via: EasyCDDAExtractor 4.5.0.2
#
DISCID=80085b0a
DTITLE=Hank Williams Jr. - Man Of Steel
DYEAR=1983
DGENRE=Country
TTITLE0=Man Of Steel
TTITLE1=The Air That I Breathe
TTITLE2=Woman On The Run
TTITLE3=She Had Me
TTITLE4=Midnight Rider
TTITLE5=Lovesick Blues
TTITLE6=Queen Of My Heart
TTITLE7=Now I Know How George Feels
TTITLE8=It Just Don't Get It No More
TTITLE9=Orange Blossom Special
EXTD=
EXTT0=
EXTT1=
EXTT2=
EXTT3=
EXTT4=
EXTT5=
EXTT6=
EXTT7=
EXTT8=
EXTT9=
PLAYORDER=
